<svg id="Download_on_the_App_Store_Badge_JP_RGB_blk_100317" xmlns="http://www.w3.org/2000/svg" width="120" height="40.281" viewBox="0 0 120 40.281">
  <defs>
    <style>
      .cls-1 {
        fill: #a6a6a6;
      }

      .cls-2 {
        fill: #fff;
      }
    </style>
  </defs>
  <g id="グループ_783" data-name="グループ 783">
    <path id="パス_3428" data-name="パス 3428" class="cls-1" d="M109.495,0H10.511c-.4,0-.8,0-1.207,0C8.967,0,8.632.01,8.291.015A15.914,15.914,0,0,0,6.082.193a7.842,7.842,0,0,0-2.1.631A7.108,7.108,0,0,0,2.2,2.011,6.361,6.361,0,0,0,.9,3.644,6.255,6.255,0,0,0,.214,5.56a11.984,11.984,0,0,0-.2,2.016C.006,7.885.005,8.195,0,8.5V31.78c.005.313.006.616.017.928a11.983,11.983,0,0,0,.2,2.016A6.241,6.241,0,0,0,.9,36.642a6.313,6.313,0,0,0,1.3,1.626,6.927,6.927,0,0,0,1.784,1.187,7.882,7.882,0,0,0,2.1.635,16.2,16.2,0,0,0,2.209.178c.341.007.676.011,1.013.011.4,0,.8,0,1.207,0h98.984c.4,0,.8,0,1.2,0,.336,0,.68,0,1.016-.011a15.991,15.991,0,0,0,2.2-.178,8.005,8.005,0,0,0,2.1-.635,6.93,6.93,0,0,0,1.783-1.187,6.506,6.506,0,0,0,1.3-1.626,6.254,6.254,0,0,0,.683-1.918,12.46,12.46,0,0,0,.2-2.016c0-.313,0-.616,0-.928.009-.366.009-.73.009-1.1V9.6c0-.369,0-.735-.009-1.1,0-.309,0-.619,0-.927a12.459,12.459,0,0,0-.2-2.016,6.267,6.267,0,0,0-.683-1.917A6.852,6.852,0,0,0,116.015.824a7.964,7.964,0,0,0-2.1-.631,15.708,15.708,0,0,0-2.2-.178c-.336,0-.68-.011-1.016-.013C110.294,0,109.891,0,109.495,0Z"/>
    <path id="パス_3429" data-name="パス 3429" d="M9.233,39.406c-.336,0-.665,0-1-.011a15.32,15.32,0,0,1-2.064-.164,6.939,6.939,0,0,1-1.829-.552A5.978,5.978,0,0,1,2.8,37.655a5.434,5.434,0,0,1-1.726-3.076A11.439,11.439,0,0,1,.889,32.69c-.007-.212-.016-.92-.016-.92V8.5s.01-.7.016-.9a11.4,11.4,0,0,1,.183-1.886A5.477,5.477,0,0,1,2.793,2.63,6.153,6.153,0,0,1,4.341,1.6a6.869,6.869,0,0,1,1.825-.548A15.2,15.2,0,0,1,8.237.887l1-.012H110.761l1.008.013a14.955,14.955,0,0,1,2.052.164,7.006,7.006,0,0,1,1.845.552,5.932,5.932,0,0,1,2.666,2.438,5.454,5.454,0,0,1,.591,1.661,11.975,11.975,0,0,1,.192,1.9c0,.285,0,.592,0,.9.009.378.009.737.009,1.1V30.682c0,.366,0,.723-.009,1.083,0,.328,0,.628,0,.937a11.733,11.733,0,0,1-.189,1.867,5.431,5.431,0,0,1-.6,1.682,5.579,5.579,0,0,1-1.121,1.4,5.983,5.983,0,0,1-1.545,1.03,6.914,6.914,0,0,1-1.842.554,15.144,15.144,0,0,1-2.064.164c-.323.007-.662.011-.991.011l-1.2,0Z" transform="translate(0)"/>
  </g>
  <g id="グループ_784" data-name="グループ 784" transform="translate(37.174 9.712)">
    <path id="パス_3430" data-name="パス 3430" class="cls-2" d="M41.167,16.555H37.116l-.973,2.873H34.427L38.264,8.8h1.783l3.838,10.629H42.14Zm-3.632-1.326h3.212l-1.583-4.663H39.12Z" transform="translate(-34.427 -8.621)"/>
    <path id="パス_3431" data-name="パス 3431" class="cls-2" d="M52.173,15.553c0,2.408-1.289,3.955-3.234,3.955A2.627,2.627,0,0,1,46.5,18.153h-.037v3.838H44.873V11.678h1.54v1.289h.029a2.749,2.749,0,0,1,2.468-1.37C50.876,11.6,52.173,13.152,52.173,15.553Zm-1.635,0c0-1.569-.811-2.6-2.048-2.6-1.215,0-2.033,1.053-2.033,2.6s.818,2.607,2.033,2.607c1.237,0,2.048-1.024,2.048-2.607Z" transform="translate(-34.427 -8.621)"/>
    <path id="パス_3432" data-name="パス 3432" class="cls-2" d="M60.7,15.553c0,2.408-1.289,3.955-3.234,3.955a2.627,2.627,0,0,1-2.438-1.356h-.037v3.838H53.4V11.678h1.54v1.289h.029a2.749,2.749,0,0,1,2.468-1.37C59.406,11.6,60.7,13.152,60.7,15.553Zm-1.635,0c0-1.569-.811-2.6-2.048-2.6-1.215,0-2.033,1.053-2.033,2.6s.818,2.607,2.033,2.607c1.237,0,2.048-1.024,2.048-2.607Z" transform="translate(-34.427 -8.621)"/>
    <path id="パス_3433" data-name="パス 3433" class="cls-2" d="M66.339,16.466c.118,1.054,1.142,1.746,2.541,1.746,1.341,0,2.305-.692,2.305-1.643,0-.825-.582-1.319-1.959-1.658l-1.378-.332c-1.952-.471-2.858-1.384-2.858-2.865,0-1.834,1.6-3.094,3.867-3.094,2.247,0,3.787,1.26,3.838,3.094H71.09c-.1-1.061-.973-1.7-2.254-1.7s-2.158.648-2.158,1.591c0,.751.56,1.194,1.93,1.532l1.171.288c2.181.516,3.086,1.392,3.086,2.947,0,1.989-1.583,3.234-4.1,3.234-2.357,0-3.949-1.216-4.052-3.139Z" transform="translate(-34.427 -8.621)"/>
    <path id="パス_3434" data-name="パス 3434" class="cls-2" d="M76.3,9.844v1.834h1.474v1.26H76.3V17.21c0,.664.3.973.943.973a4.97,4.97,0,0,0,.523-.037V19.4a4.368,4.368,0,0,1-.884.074c-1.569,0-2.181-.589-2.181-2.092V12.938H73.575v-1.26H74.7V9.844Z" transform="translate(-34.427 -8.621)"/>
    <path id="パス_3435" data-name="パス 3435" class="cls-2" d="M78.626,15.553c0-2.438,1.436-3.97,3.675-3.97s3.676,1.532,3.676,3.97-1.422,3.97-3.676,3.97S78.626,18,78.626,15.553Zm5.731,0c0-1.673-.767-2.66-2.055-2.66s-2.055.995-2.055,2.66.767,2.659,2.055,2.659S84.357,17.233,84.357,15.553Z" transform="translate(-34.427 -8.621)"/>
    <path id="パス_3436" data-name="パス 3436" class="cls-2" d="M87.289,11.678h1.517V13h.037a1.848,1.848,0,0,1,1.864-1.4,2.453,2.453,0,0,1,.545.059v1.488a2.224,2.224,0,0,0-.715-.1,1.6,1.6,0,0,0-1.658,1.783v4.6H87.289Z" transform="translate(-34.427 -8.621)"/>
    <path id="パス_3437" data-name="パス 3437" class="cls-2" d="M98.586,17.151a3.11,3.11,0,0,1-3.337,2.372c-2.254,0-3.654-1.51-3.654-3.934S93,11.583,95.182,11.583c2.144,0,3.492,1.473,3.492,3.823v.545H93.2v.1a2.018,2.018,0,0,0,2.085,2.2,1.753,1.753,0,0,0,1.79-1.09Zm-5.377-2.313h3.874a1.864,1.864,0,0,0-1.9-1.967,1.962,1.962,0,0,0-1.974,1.967Z" transform="translate(-34.427 -8.621)"/>
  </g>
  <g id="グループ_785" data-name="グループ 785" transform="translate(37.708 23.577)">
    <path id="パス_3438" data-name="パス 3438" class="cls-2" d="M36.437,30.812l.066-.819a3.132,3.132,0,0,0,.951.151c.292,0,.4-.028.546-.227a4.565,4.565,0,0,0,.433-2.315c0-.848-.263-1.093-.932-1.093-.151,0-.32.01-.509.02a13.727,13.727,0,0,1-1.77,4.123l-.782-.424a11.071,11.071,0,0,0,1.647-3.615,13.676,13.676,0,0,0-1.534.255l-.169-.829c.574-.1,1.261-.2,1.9-.254a17.61,17.61,0,0,0,.292-1.893l.923.1c-.085.574-.188,1.149-.32,1.714h.367c1.2,0,1.77.593,1.77,1.854a5.834,5.834,0,0,1-.546,2.8,1.157,1.157,0,0,1-1.13.6,5.182,5.182,0,0,1-1.205-.15Zm3.031-5.074.688-.462a5.3,5.3,0,0,1,1.61,3.484l-.9.141a4.4,4.4,0,0,0-1.394-3.163Z" transform="translate(-34.384 -23.374)"/>
    <path id="パス_3439" data-name="パス 3439" class="cls-2" d="M44.887,30.943,44.7,30.1c.235.02.546.028.734.028,1.864,0,2.57-.526,2.57-1.309,0-.621-.4-.979-1.309-.979a4.039,4.039,0,0,0-2.58,1.262l-.725-.32a5.524,5.524,0,0,1,.8-3.53l.838.272a3.687,3.687,0,0,0-.715,2.448,4.817,4.817,0,0,1,2.57-.876c1.262,0,2.043.649,2.043,1.7,0,1.337-1.055,2.156-3.587,2.156C45.216,30.953,45.038,30.943,44.887,30.943Zm-.875-6.251.235-.829a25.885,25.885,0,0,1,3.7.848l-.226.819a21.142,21.142,0,0,0-3.709-.838Z" transform="translate(-34.384 -23.374)"/>
    <path id="パス_3440" data-name="パス 3440" class="cls-2" d="M51.652,30.294a5.948,5.948,0,0,0,2.532-1.639,10.7,10.7,0,0,0-1.76-1.186l.518-.649a11.445,11.445,0,0,1,1.789,1.129,5.954,5.954,0,0,0,.923-2.175h-2.4A9.7,9.7,0,0,1,51.2,28.138l-.687-.593a8.924,8.924,0,0,0,2.618-3.6l.9.217c-.1.264-.207.536-.33.791H56.04l.668.311a7.141,7.141,0,0,1-4.51,5.762Zm3.973-6.571.527-.255a5.677,5.677,0,0,1,.668,1.158l-.593.273a5.134,5.134,0,0,0-.6-1.177Zm1.177-.095.537-.254a6.356,6.356,0,0,1,.688,1.187l-.593.254a5.169,5.169,0,0,0-.631-1.187Z" transform="translate(-34.384 -23.374)"/>
    <path id="パス_3441" data-name="パス 3441" class="cls-2" d="M60.921,30.99l-.48-.763a3.944,3.944,0,0,0,3.314-4.151H59.8v1.893H58.85V25.275h2.363V23.892h.951v1.384h1.761l.866.245C64.678,28.194,63.784,30.237,60.921,30.99Z" transform="translate(-34.384 -23.374)"/>
    <path id="パス_3442" data-name="パス 3442" class="cls-2" d="M66.623,25.342l.527-.772a11.683,11.683,0,0,1,2.315,1.4l-.6.81a11.053,11.053,0,0,0-2.24-1.44Zm.179,4.642a7.317,7.317,0,0,0,5.433-3.917l.621.7a7.964,7.964,0,0,1-5.7,4.095Z" transform="translate(-34.384 -23.374)"/>
    <path id="パス_3443" data-name="パス 3443" class="cls-2" d="M80.571,30.436H74.649v-5.6h5.922ZM75.582,25.7v3.87h4.048V25.7Z" transform="translate(-34.384 -23.374)"/>
    <path id="パス_3444" data-name="パス 3444" class="cls-2" d="M89.049,27.921H82.393v-.96h6.656Z" transform="translate(-34.384 -23.374)"/>
    <path id="パス_3445" data-name="パス 3445" class="cls-2" d="M91.314,23.92h.932v2.41a29.014,29.014,0,0,1,3.6,1.8l-.527.828a22.723,22.723,0,0,0-3.069-1.647v3.634h-.932Zm2.212.509.556-.264a6.2,6.2,0,0,1,.669,1.28l-.612.273a5.516,5.516,0,0,0-.612-1.29Zm1.073-.405.565-.264a6.105,6.105,0,0,1,.706,1.28l-.612.273a6.127,6.127,0,0,0-.659-1.29Z" transform="translate(-34.384 -23.374)"/>
  </g>
  <g id="_Group_" data-name="&lt;Group&gt;" transform="translate(9.972 7.855)">
    <g id="_Group_2" data-name="&lt;Group&gt;">
      <path id="_Path_" data-name="&lt;Path&gt;" class="cls-2" d="M26.676,21.376a5.836,5.836,0,0,1,2.66-4.857,5.669,5.669,0,0,0-4.506-2.524c-1.9-.206-3.733,1.176-4.7,1.176-.985,0-2.472-1.155-4.074-1.121a5.977,5.977,0,0,0-5.049,3.191c-2.183,3.917-.555,9.674,1.537,12.84,1.046,1.55,2.269,3.282,3.869,3.221,1.566-.067,2.151-1.035,4.041-1.035,1.873,0,2.421,1.035,4.054,1,1.68-.028,2.739-1.557,3.748-3.123a13.02,13.02,0,0,0,1.714-3.618A5.6,5.6,0,0,1,26.676,21.376Z" transform="translate(-9.972 -8.72)"/>
      <path id="_Path_2" data-name="&lt;Path&gt;" class="cls-2" d="M22.037,12.211A4.872,4.872,0,0,0,23.152,8.72a4.957,4.957,0,0,0-3.208,1.66A4.636,4.636,0,0,0,18.8,13.741,4.1,4.1,0,0,0,22.037,12.211Z" transform="translate(-8.462 -8.72)"/>
    </g>
  </g>
</svg>
