<svg xmlns="http://www.w3.org/2000/svg" xmlns:xlink="http://www.w3.org/1999/xlink" width="688" height="118" viewBox="0 0 688 118">
  <defs>
    <style>
      .cls-1, .cls-4 {
        fill: #fff;
      }

      .cls-2 {
        fill: #484848;
        font-family: HiraKakuPro-W3, Hiragino Kaku Gothic Pro;
      }

      .cls-2, .cls-4 {
        font-size: 18px;
      }

      .cls-3, .cls-6 {
        fill: #4668be;
      }

      .cls-4 {
        font-family: HiraKakuPro-W6, Hiragino Kaku Gothic Pro;
      }

      .cls-5, .cls-6 {
        stroke: none;
      }

      .cls-7 {
        filter: url(#パス_3427);
      }
    </style>
    <filter id="パス_3427" x="0" y="0" width="688" height="118" filterUnits="userSpaceOnUse">
      <feOffset dy="3" input="SourceAlpha"/>
      <feGaussianBlur stdDeviation="3" result="blur"/>
      <feFlood flood-opacity="0.161"/>
      <feComposite operator="in" in2="blur"/>
      <feComposite in="SourceGraphic"/>
    </filter>
  </defs>
  <g id="グループ_774" data-name="グループ 774" transform="translate(4255 -4857)">
    <g class="cls-7" transform="matrix(1, 0, 0, 1, -4255, 4857)">
      <g id="パス_3427-2" data-name="パス 3427" class="cls-1" transform="translate(9 6)">
        <path class="cls-5" d="M 669.5 99.5 L 0.5 99.5 L 0.5 0.5 L 669.5 0.5 L 669.5 99.5 Z"/>
        <path class="cls-6" d="M 1 1 L 1 99 L 669 99 L 669 1 L 1 1 M 0 0 L 670 0 L 670 100 L 0 100 L 0 0 Z"/>
      </g>
    </g>
    <text id="副作用歴_アレルギー歴_飲み合わせなどの確認のため_問診票への記入をお願いしております_" data-name="副作用歴・アレルギー歴・飲み合わせなどの確認のため、問診票への記入をお願いしております。" class="cls-2" transform="translate(-4073 4885)"><tspan x="0" y="16">副作用歴・アレルギー歴・飲み合わせなどの確認のため、</tspan><tspan x="0" y="48">問診票への記入をお願いしております。</tspan></text>
    <g id="グループ_769" data-name="グループ 769" transform="translate(-4346 3226)">
      <path id="パス_3422" data-name="パス 3422" class="cls-3" d="M0,0H140V79H0Z" transform="translate(110 1647)"/>
      <text id="初めての_お客様の場合" data-name="初めての
お客様の場合" class="cls-4" transform="translate(122 1661)"><tspan x="22" y="16">初めての</tspan><tspan x="4" y="46">お客様の場合</tspan></text>
    </g>
  </g>
</svg>
